<svg width="204" height="21" viewBox="0 0 204 21" fill="none" xmlns="http://www.w3.org/2000/svg">
<path d="M201.944 6.0482C201.957 6.22586 201.957 6.40355 201.957 6.58121C201.957 12 197.833 18.2436 190.294 18.2436C187.972 18.2436 185.815 17.571 184 16.4036C184.33 16.4416 184.647 16.4543 184.99 16.4543C186.906 16.4543 188.67 15.8071 190.079 14.703C188.277 14.665 186.766 13.4848 186.246 11.8604C186.5 11.8984 186.754 11.9238 187.02 11.9238C187.388 11.9238 187.756 11.873 188.099 11.7843C186.221 11.4035 184.812 9.75379 184.812 7.76141V7.71066C185.358 8.01523 185.992 8.20559 186.665 8.23094C185.561 7.49488 184.838 6.23855 184.838 4.81723C184.838 4.05582 185.041 3.35785 185.396 2.74871C187.414 5.23602 190.447 6.86035 193.848 7.03805C193.784 6.73348 193.746 6.41625 193.746 6.09898C193.746 3.84008 195.574 2 197.845 2C199.025 2 200.091 2.49492 200.84 3.29441C201.766 3.11676 202.655 2.7741 203.442 2.30457C203.137 3.25637 202.49 4.05586 201.64 4.56344C202.464 4.47465 203.264 4.24617 204 3.92895C203.442 4.74109 202.744 5.46441 201.944 6.0482Z" fill="#3DB370"/>
<path d="M147.688 0C142.346 0 138 4.34578 138 9.6875C138 15.0292 142.346 19.375 147.688 19.375C153.029 19.375 157.375 15.0292 157.375 9.6875C157.375 4.34578 153.029 0 147.688 0ZM154.093 4.46742C155.245 5.87547 155.943 7.66887 155.961 9.62191C155.688 9.56422 152.953 9.00934 150.199 9.35559C149.975 8.80711 149.763 8.32461 149.472 7.73004C152.532 6.48094 153.918 4.7034 154.093 4.46742ZM153.173 3.51055C153.024 3.72254 151.778 5.39672 148.836 6.49957C147.48 4.00832 145.977 1.96176 145.748 1.65551C148.373 1.02297 151.138 1.70512 153.173 3.51055ZM144.17 2.21172C144.388 2.5109 145.866 4.56 147.237 6.99723C143.367 8.02508 139.958 8.01027 139.588 8.00539C140.124 5.4377 141.855 3.30363 144.17 2.21172ZM139.413 9.70012C139.413 9.61551 139.415 9.53129 139.417 9.44727C139.779 9.45469 143.789 9.50637 147.921 8.26969C148.158 8.73328 148.384 9.20387 148.592 9.67395C145.6 10.5167 142.881 12.9367 141.54 15.2328C140.219 13.7658 139.413 11.8254 139.413 9.70012ZM142.608 16.228C143.473 14.4611 145.819 12.1802 149.155 11.0422C150.316 14.0611 150.797 16.5911 150.92 17.3171C148.259 18.4504 145.06 18.1395 142.608 16.228ZM152.311 16.5596C152.226 16.0562 151.786 13.6339 150.703 10.6598C153.296 10.2448 155.574 10.9242 155.858 11.0136C155.489 13.3159 154.167 15.3043 152.311 16.5596Z" fill="#3DB370"/>
<path d="M60.3447 11.5025L60.8632 8.12348H57.621V5.93071C57.621 5.00627 58.0739 4.10517 59.526 4.10517H61V1.22828C61 1.22828 59.6624 1 58.3835 1C55.7134 1 53.9681 2.61841 53.9681 5.54817V8.12348H51V11.5025H53.9681V19.6711H57.621V11.5025H60.3447Z" fill="#3DB370"/>
<path d="M98.6895 15.7016C98.6895 15.7823 98.5968 15.8468 98.4798 15.8468C98.3468 15.8589 98.254 15.7944 98.254 15.7016C98.254 15.621 98.3468 15.5565 98.4637 15.5565C98.5847 15.5444 98.6895 15.6089 98.6895 15.7016ZM97.4355 15.5202C97.4073 15.6008 97.4879 15.6935 97.6089 15.7177C97.7137 15.7581 97.8347 15.7177 97.8589 15.6371C97.8831 15.5565 97.8065 15.4637 97.6855 15.4274C97.5806 15.3992 97.4637 15.4395 97.4355 15.5202ZM99.2177 15.4516C99.1008 15.4798 99.0202 15.5565 99.0323 15.6492C99.0444 15.7298 99.1492 15.7823 99.2702 15.754C99.3871 15.7258 99.4677 15.6492 99.4556 15.5685C99.4435 15.4919 99.3347 15.4395 99.2177 15.4516ZM101.871 0C96.2782 0 92 4.24597 92 9.83871C92 14.3105 94.8145 18.1371 98.8347 19.4839C99.3508 19.5766 99.5323 19.2581 99.5323 18.996C99.5323 18.746 99.5202 17.3669 99.5202 16.5202C99.5202 16.5202 96.6976 17.125 96.1048 15.3185C96.1048 15.3185 95.6452 14.1452 94.9839 13.8427C94.9839 13.8427 94.0605 13.2097 95.0484 13.2218C95.0484 13.2218 96.0524 13.3024 96.6048 14.2621C97.4879 15.8185 98.9677 15.371 99.5444 15.1048C99.6371 14.4597 99.8992 14.0121 100.19 13.746C97.9355 13.496 95.6613 13.1694 95.6613 9.29032C95.6613 8.18145 95.9677 7.625 96.6129 6.91532C96.5081 6.65323 96.1653 5.57258 96.7177 4.17742C97.5605 3.91532 99.5 5.26613 99.5 5.26613C100.306 5.04032 101.173 4.92339 102.032 4.92339C102.891 4.92339 103.758 5.04032 104.565 5.26613C104.565 5.26613 106.504 3.91129 107.347 4.17742C107.899 5.57661 107.556 6.65323 107.452 6.91532C108.097 7.62903 108.492 8.18548 108.492 9.29032C108.492 13.1815 106.117 13.4919 103.863 13.746C104.234 14.0645 104.548 14.6694 104.548 15.6169C104.548 16.9758 104.536 18.6573 104.536 18.9879C104.536 19.25 104.722 19.5685 105.234 19.4758C109.266 18.1371 112 14.3105 112 9.83871C112 4.24597 107.464 0 101.871 0ZM95.9194 13.9073C95.8669 13.9476 95.879 14.0403 95.9476 14.1169C96.0121 14.1815 96.1048 14.2097 96.1573 14.1573C96.2097 14.1169 96.1976 14.0242 96.129 13.9476C96.0645 13.8831 95.9718 13.8548 95.9194 13.9073ZM95.4839 13.5806C95.4556 13.6331 95.496 13.6976 95.5766 13.7379C95.6411 13.7782 95.7218 13.7661 95.75 13.7097C95.7782 13.6573 95.7379 13.5927 95.6573 13.5524C95.5766 13.5282 95.5121 13.5403 95.4839 13.5806ZM96.7903 15.0161C96.7258 15.0685 96.75 15.1895 96.8427 15.2661C96.9355 15.3589 97.0524 15.371 97.1048 15.3065C97.1573 15.254 97.1331 15.1331 97.0524 15.0565C96.9637 14.9637 96.8427 14.9516 96.7903 15.0161ZM96.3306 14.4234C96.2661 14.4637 96.2661 14.5685 96.3306 14.6613C96.3952 14.754 96.504 14.7944 96.5565 14.754C96.621 14.7016 96.621 14.5968 96.5565 14.504C96.5 14.4113 96.3952 14.371 96.3306 14.4234Z" fill="#3DB370"/>
<path d="M10.0078 4.87388C7.16852 4.87388 4.87834 7.16406 4.87834 10.0033C4.87834 12.8426 7.16852 15.1328 10.0078 15.1328C12.8471 15.1328 15.1373 12.8426 15.1373 10.0033C15.1373 7.16406 12.8471 4.87388 10.0078 4.87388ZM10.0078 13.3382C8.17298 13.3382 6.67298 11.8426 6.67298 10.0033C6.67298 8.16406 8.16851 6.66853 10.0078 6.66853C11.8471 6.66853 13.3426 8.16406 13.3426 10.0033C13.3426 11.8426 11.8426 13.3382 10.0078 13.3382ZM16.5435 4.66406C16.5435 5.32924 16.0078 5.86049 15.3471 5.86049C14.6819 5.86049 14.1506 5.32478 14.1506 4.66406C14.1506 4.00335 14.6864 3.46763 15.3471 3.46763C16.0078 3.46763 16.5435 4.00335 16.5435 4.66406ZM19.9408 5.87835C19.8649 4.27567 19.4989 2.85603 18.3247 1.68638C17.1551 0.516741 15.7355 0.15067 14.1328 0.0703125C12.481 -0.0234375 7.53012 -0.0234375 5.87834 0.0703125C4.28013 0.146205 2.86049 0.512277 1.68638 1.68192C0.512276 2.85156 0.150669 4.2712 0.0703124 5.87388C-0.0234375 7.52567 -0.0234375 12.4766 0.0703124 14.1283C0.146205 15.731 0.512276 17.1507 1.68638 18.3203C2.86049 19.49 4.27566 19.856 5.87834 19.9364C7.53012 20.0301 12.481 20.0301 14.1328 19.9364C15.7355 19.8605 17.1551 19.4944 18.3247 18.3203C19.4944 17.1507 19.8605 15.731 19.9408 14.1283C20.0346 12.4766 20.0346 7.53013 19.9408 5.87835ZM17.8069 15.9007C17.4587 16.7757 16.7846 17.4498 15.9051 17.8025C14.5881 18.3248 11.4632 18.2042 10.0078 18.2042C8.55244 18.2042 5.42298 18.3203 4.11048 17.8025C3.23549 17.4542 2.56138 16.7801 2.2087 15.9007C1.68638 14.5837 1.80692 11.4587 1.80692 10.0033C1.80692 8.54799 1.69085 5.41853 2.2087 4.10603C2.55692 3.23103 3.23102 2.55692 4.11048 2.20424C5.42745 1.68192 8.55244 1.80246 10.0078 1.80246C11.4632 1.80246 14.5926 1.68638 15.9051 2.20424C16.7801 2.55246 17.4542 3.22656 17.8069 4.10603C18.3292 5.42299 18.2087 8.54799 18.2087 10.0033C18.2087 11.4587 18.3292 14.5882 17.8069 15.9007Z" fill="#3DB370"/>
</svg>
